<?xml version="1.0" encoding="UTF-8" standalone="no"?>
<!DOCTYPE svg PUBLIC "-//W3C//DTD SVG 1.1//EN"
 "http://www.w3.org/Graphics/SVG/1.1/DTD/svg11.dtd">
<!-- Generated by graphviz version 2.43.0 (0)
 -->
<!-- Title: %3 Pages: 1 -->
<svg width="436pt" height="305pt"
 viewBox="0.00 0.00 436.00 305.00" xmlns="http://www.w3.org/2000/svg" xmlns:xlink="http://www.w3.org/1999/xlink">
<g id="graph0" class="graph" transform="scale(1 1) rotate(0) translate(4 301)">
<title>%3</title>
<polygon fill="white" stroke="transparent" points="-4,4 -4,-301 432,-301 432,4 -4,4"/>
<!-- throw -->
<g id="node1" class="node">
<title>throw</title>
<ellipse fill="#ffaaaa" stroke="#ffaaaa" cx="211" cy="-279" rx="38.19" ry="18"/>
<text text-anchor="middle" x="211" y="-275.3" font-family="Times,serif" font-size="14.00">throw</text>
</g>
<!-- s1 -->
<g id="node3" class="node">
<title>s1</title>
<ellipse fill="#aaaaff" stroke="#aaaaff" cx="27" cy="-192" rx="27" ry="18"/>
<text text-anchor="middle" x="27" y="-188.3" font-family="Times,serif" font-size="14.00">s1</text>
</g>
<!-- throw&#45;&gt;s1 -->
<g id="edge13" class="edge">
<title>throw&#45;&gt;s1</title>
<path fill="none" stroke="black" d="M172.84,-276.29C124.46,-273.23 45.14,-264.92 27,-243 21.79,-236.7 20.41,-228.26 20.75,-220.12"/>
<polygon fill="black" stroke="black" points="24.23,-220.48 21.95,-210.14 17.28,-219.65 24.23,-220.48"/>
<text text-anchor="middle" x="38.5" y="-231.8" font-family="Times,serif" font-size="14.00">1/6</text>
</g>
<!-- s2 -->
<g id="node4" class="node">
<title>s2</title>
<ellipse fill="#aaaaff" stroke="#aaaaff" cx="99" cy="-192" rx="27" ry="18"/>
<text text-anchor="middle" x="99" y="-188.3" font-family="Times,serif" font-size="14.00">s2</text>
</g>
<!-- throw&#45;&gt;s2 -->
<g id="edge14" class="edge">
<title>throw&#45;&gt;s2</title>
<path fill="none" stroke="black" d="M172.6,-277.31C146.71,-274.59 114.23,-266.31 97,-243 92.14,-236.42 91.12,-227.91 91.78,-219.78"/>
<polygon fill="black" stroke="black" points="95.25,-220.29 93.36,-209.86 88.33,-219.19 95.25,-220.29"/>
<text text-anchor="middle" x="108.5" y="-231.8" font-family="Times,serif" font-size="14.00">1/6</text>
</g>
<!-- s3 -->
<g id="node5" class="node">
<title>s3</title>
<ellipse fill="#aaaaff" stroke="#aaaaff" cx="171" cy="-192" rx="27" ry="18"/>
<text text-anchor="middle" x="171" y="-188.3" font-family="Times,serif" font-size="14.00">s3</text>
</g>
<!-- throw&#45;&gt;s3 -->
<g id="edge15" class="edge">
<title>throw&#45;&gt;s3</title>
<path fill="none" stroke="black" d="M184.43,-265.97C175.3,-260.38 166.09,-252.77 161,-243 157.21,-235.71 157.48,-227.14 159.36,-219.17"/>
<polygon fill="black" stroke="black" points="162.73,-220.12 162.44,-209.53 156.06,-218 162.73,-220.12"/>
<text text-anchor="middle" x="172.5" y="-231.8" font-family="Times,serif" font-size="14.00">1/6</text>
</g>
<!-- s4 -->
<g id="node6" class="node">
<title>s4</title>
<ellipse fill="#aaaaff" stroke="#aaaaff" cx="243" cy="-192" rx="27" ry="18"/>
<text text-anchor="middle" x="243" y="-188.3" font-family="Times,serif" font-size="14.00">s4</text>
</g>
<!-- throw&#45;&gt;s4 -->
<g id="edge16" class="edge">
<title>throw&#45;&gt;s4</title>
<path fill="none" stroke="black" d="M215.98,-260.7C218.91,-250.99 222.86,-238.71 227,-228 228.14,-225.04 229.41,-221.98 230.72,-218.95"/>
<polygon fill="black" stroke="black" points="234.04,-220.12 234.94,-209.56 227.65,-217.25 234.04,-220.12"/>
<text text-anchor="middle" x="238.5" y="-231.8" font-family="Times,serif" font-size="14.00">1/6</text>
</g>
<!-- s5 -->
<g id="node7" class="node">
<title>s5</title>
<ellipse fill="#aaaaff" stroke="#aaaaff" cx="315" cy="-192" rx="27" ry="18"/>
<text text-anchor="middle" x="315" y="-188.3" font-family="Times,serif" font-size="14.00">s5</text>
</g>
<!-- throw&#45;&gt;s5 -->
<g id="edge17" class="edge">
<title>throw&#45;&gt;s5</title>
<path fill="none" stroke="black" d="M237.85,-265.92C249.6,-259.94 263.15,-252.06 274,-243 283.01,-235.48 291.5,-225.76 298.4,-216.89"/>
<polygon fill="black" stroke="black" points="301.3,-218.85 304.48,-208.75 295.69,-214.66 301.3,-218.85"/>
<text text-anchor="middle" x="296" y="-231.8" font-family="Times,serif" font-size="14.00">/6</text>
</g>
<!-- s6 -->
<g id="node8" class="node">
<title>s6</title>
<ellipse fill="#aaaaff" stroke="#aaaaff" cx="387" cy="-192" rx="27" ry="18"/>
<text text-anchor="middle" x="387" y="-188.3" font-family="Times,serif" font-size="14.00">s6</text>
</g>
<!-- throw&#45;&gt;s6 -->
<g id="edge18" class="edge">
<title>throw&#45;&gt;s6</title>
<path fill="none" stroke="black" d="M248.57,-275.24C277.98,-271.56 318.8,-262.98 349,-243 358.65,-236.62 366.82,-226.94 373.09,-217.79"/>
<polygon fill="black" stroke="black" points="376.08,-219.62 378.5,-209.31 370.18,-215.85 376.08,-219.62"/>
<text text-anchor="middle" x="376.5" y="-231.8" font-family="Times,serif" font-size="14.00">1/6</text>
</g>
<!-- finish -->
<g id="node2" class="node">
<title>finish</title>
<ellipse fill="#ffaaaa" stroke="#ffaaaa" cx="206" cy="-105" rx="36.29" ry="18"/>
<text text-anchor="middle" x="206" y="-101.3" font-family="Times,serif" font-size="14.00">finish</text>
</g>
<!-- st -->
<g id="node9" class="node">
<title>st</title>
<ellipse fill="#aaaaff" stroke="#aaaaff" cx="206" cy="-18" rx="27" ry="18"/>
<text text-anchor="middle" x="206" y="-14.3" font-family="Times,serif" font-size="14.00">st</text>
</g>
<!-- finish&#45;&gt;st -->
<g id="edge19" class="edge">
<title>finish&#45;&gt;st</title>
<path fill="none" stroke="black" d="M206,-86.8C206,-75.16 206,-59.55 206,-46.24"/>
<polygon fill="black" stroke="black" points="209.5,-46.18 206,-36.18 202.5,-46.18 209.5,-46.18"/>
<text text-anchor="middle" x="211" y="-57.8" font-family="Times,serif" font-size="14.00">1</text>
</g>
<!-- s1&#45;&gt;throw -->
<g id="edge1" class="edge">
<title>s1&#45;&gt;throw</title>
<path fill="none" stroke="red" d="M37.68,-208.81C46.03,-219.98 58.61,-234.42 73,-243 100.6,-259.46 135.77,-268.23 163.69,-272.87"/>
<polygon fill="red" stroke="red" points="163.21,-276.34 173.63,-274.4 164.28,-269.42 163.21,-276.34"/>
<text text-anchor="middle" x="80" y="-231.8" font-family="Times,serif" font-size="14.00" fill="red">&#45;1</text>
</g>
<!-- s1&#45;&gt;finish -->
<g id="edge7" class="edge">
<title>s1&#45;&gt;finish</title>
<path fill="none" stroke="red" d="M48.31,-180.83C69.52,-170.72 103,-154.76 132,-141 144.89,-134.88 159.05,-128.18 171.51,-122.29"/>
<polygon fill="red" stroke="red" points="173.1,-125.41 180.65,-117.97 170.11,-119.08 173.1,-125.41"/>
<text text-anchor="middle" x="137" y="-144.8" font-family="Times,serif" font-size="14.00" fill="red">1</text>
</g>
<!-- s2&#45;&gt;throw -->
<g id="edge2" class="edge">
<title>s2&#45;&gt;throw</title>
<path fill="none" stroke="red" d="M109.37,-208.94C116.9,-219.59 127.87,-233.37 140,-243 149.84,-250.81 161.7,-257.51 172.89,-262.89"/>
<polygon fill="red" stroke="red" points="171.52,-266.11 182.07,-267.09 174.44,-259.74 171.52,-266.11"/>
<text text-anchor="middle" x="147" y="-231.8" font-family="Times,serif" font-size="14.00" fill="red">&#45;1</text>
</g>
<!-- s2&#45;&gt;finish -->
<g id="edge8" class="edge">
<title>s2&#45;&gt;finish</title>
<path fill="none" stroke="red" d="M115.72,-177.72C132.79,-164.15 159.56,-142.89 179.52,-127.04"/>
<polygon fill="red" stroke="red" points="181.95,-129.57 187.61,-120.61 177.6,-124.09 181.95,-129.57"/>
<text text-anchor="middle" x="163" y="-144.8" font-family="Times,serif" font-size="14.00" fill="red">2</text>
</g>
<!-- s3&#45;&gt;throw -->
<g id="edge3" class="edge">
<title>s3&#45;&gt;throw</title>
<path fill="none" stroke="red" d="M178.75,-209.47C184.45,-221.57 192.3,-238.26 198.83,-252.14"/>
<polygon fill="red" stroke="red" points="195.67,-253.65 203.1,-261.21 202.01,-250.67 195.67,-253.65"/>
<text text-anchor="middle" x="200" y="-231.8" font-family="Times,serif" font-size="14.00" fill="red">&#45;1</text>
</g>
<!-- s3&#45;&gt;finish -->
<g id="edge9" class="edge">
<title>s3&#45;&gt;finish</title>
<path fill="none" stroke="red" d="M177.91,-174.21C182.85,-162.22 189.59,-145.85 195.23,-132.16"/>
<polygon fill="red" stroke="red" points="198.53,-133.34 199.1,-122.76 192.06,-130.67 198.53,-133.34"/>
<text text-anchor="middle" x="195" y="-144.8" font-family="Times,serif" font-size="14.00" fill="red">3</text>
</g>
<!-- s4&#45;&gt;throw -->
<g id="edge4" class="edge">
<title>s4&#45;&gt;throw</title>
<path fill="none" stroke="red" d="M251.79,-209.37C255.96,-219.44 259.04,-232.4 254,-243 251.35,-248.57 247.34,-253.54 242.8,-257.87"/>
<polygon fill="red" stroke="red" points="240.26,-255.43 234.84,-264.53 244.75,-260.8 240.26,-255.43"/>
<text text-anchor="middle" x="263" y="-231.8" font-family="Times,serif" font-size="14.00" fill="red">&#45;1</text>
</g>
<!-- s4&#45;&gt;finish -->
<g id="edge10" class="edge">
<title>s4&#45;&gt;finish</title>
<path fill="none" stroke="red" d="M235.87,-174.61C230.66,-162.65 223.5,-146.2 217.49,-132.4"/>
<polygon fill="red" stroke="red" points="220.57,-130.69 213.37,-122.92 214.15,-133.49 220.57,-130.69"/>
<text text-anchor="middle" x="231" y="-144.8" font-family="Times,serif" font-size="14.00" fill="red">4</text>
</g>
<!-- s5&#45;&gt;throw -->
<g id="edge5" class="edge">
<title>s5&#45;&gt;throw</title>
<path fill="none" stroke="red" d="M325.45,-208.75C331.04,-219.32 335.39,-233.07 328,-243 312.25,-264.15 284.19,-273.01 259.5,-276.53"/>
<polygon fill="red" stroke="red" points="259.05,-273.06 249.53,-277.7 259.87,-280.01 259.05,-273.06"/>
<text text-anchor="middle" x="338" y="-231.8" font-family="Times,serif" font-size="14.00" fill="red">&#45;1</text>
</g>
<!-- s5&#45;&gt;finish -->
<g id="edge11" class="edge">
<title>s5&#45;&gt;finish</title>
<path fill="none" stroke="red" d="M297.97,-177.72C280.5,-164.09 253.07,-142.7 232.71,-126.83"/>
<polygon fill="red" stroke="red" points="234.78,-124 224.74,-120.61 230.47,-129.52 234.78,-124"/>
<text text-anchor="middle" x="272" y="-144.8" font-family="Times,serif" font-size="14.00" fill="red">5</text>
</g>
<!-- s6&#45;&gt;throw -->
<g id="edge6" class="edge">
<title>s6&#45;&gt;throw</title>
<path fill="none" stroke="red" d="M401.88,-207.24C411.21,-217.89 419.92,-232.38 411,-243 392.03,-265.58 312.4,-273.6 259.52,-276.44"/>
<polygon fill="red" stroke="red" points="259.14,-272.95 249.33,-276.94 259.49,-279.95 259.14,-272.95"/>
<text text-anchor="middle" x="421" y="-231.8" font-family="Times,serif" font-size="14.00" fill="red">&#45;1</text>
</g>
<!-- s6&#45;&gt;finish -->
<g id="edge12" class="edge">
<title>s6&#45;&gt;finish</title>
<path fill="none" stroke="red" d="M365.68,-180.93C360.85,-178.65 355.75,-176.24 351,-174 319.89,-159.32 312.14,-155.61 281,-141 267.94,-134.87 253.59,-128.17 240.96,-122.28"/>
<polygon fill="red" stroke="red" points="242.24,-119.02 231.7,-117.96 239.28,-125.36 242.24,-119.02"/>
<text text-anchor="middle" x="317" y="-144.8" font-family="Times,serif" font-size="14.00" fill="red">6</text>
</g>
</g>
</svg>
